<svg width="327" height="337" viewBox="0 0 327 337" fill="none" xmlns="http://www.w3.org/2000/svg">
<mask id="mask0_0_826" style="mask-type:alpha" maskUnits="userSpaceOnUse" x="0" y="0" width="327" height="337">
<rect width="327" height="337" rx="24" fill="#CCCCCC"/>
</mask>
<g mask="url(#mask0_0_826)">
<path d="M20.0594 -357L538.627 -93.397L485.295 62.0028L485.295 260.929L598.35 260.929L598.35 477.603L787 577.697L630.869 878.1L481.762 817.562L387.705 901.726L-141.753 893.137L-141.753 252.306L-247 180.613L20.0594 -357Z" fill="#F2F2FA"/>
<path d="M145.454 -43.7352L223.831 33.9257C225.077 35.1639 227.02 35.2531 228.363 34.1265C235.236 28.3928 256.028 11.5042 274.049 1.44243C275.778 0.47195 276.97 -1.29054 277.26 -3.30959C279.816 -21.4252 278.849 -38.0015 274.586 -53.1499C274.081 -54.9459 272.277 -55.9722 270.548 -55.4367C241.057 -46.1781 201.815 -37.8007 148.568 -49.8258C145.164 -50.5843 142.93 -46.2339 145.454 -43.7352Z" fill="#09C5FF" fill-opacity="0.18"/>
<path d="M275.337 121.425C275.337 101.837 279.085 86.3206 279.644 84.1007C281.233 76.2142 282.898 68.5619 284.509 61.155C289.943 36.2125 295.066 12.6532 295.882 -13.271C296.784 -42.0396 292.317 -70.8417 281.824 -103.894C280.525 -107.988 282.662 -112.405 286.603 -113.755C290.545 -115.105 294.797 -112.885 296.097 -108.791C301.918 -90.4522 305.924 -73.4966 308.34 -56.9427C310.531 -41.9392 311.368 -27.4824 310.907 -12.769C310.048 14.6387 304.764 38.9008 299.168 64.5907C297.557 71.9976 295.893 79.6611 294.303 87.503C294.271 87.6592 294.239 87.8153 294.196 87.9603C294.153 88.1165 289.975 104.38 290.383 124.214C290.62 135.57 292.295 145.866 295.367 154.801C299.082 165.61 304.882 174.478 312.614 181.171C319.692 187.295 327.746 191.768 337.24 194.825C345.939 197.636 354.992 199.019 363.745 200.369C374.764 202.065 386.148 203.816 396.597 208.412C402.439 210.977 407.498 214.19 412.084 218.228C417.153 222.701 421.47 228.044 425.293 234.559C425.401 234.737 425.497 234.916 425.583 235.106C431.125 246.528 433.906 256.947 434.1 266.953C434.271 275.91 432.435 283.295 430.652 290.423C429.03 296.937 427.495 303.084 427.559 310.279C427.667 322.092 430.394 335.924 434.862 347.269C437.225 353.281 439.953 358.334 442.96 362.306C445.924 366.21 449.017 368.865 452.163 370.203C452.26 370.248 452.357 370.293 452.453 370.337C457.63 372.802 461.056 373.706 465.029 374.755C470.238 376.127 476.145 377.688 486.208 382.764C486.294 382.808 486.39 382.853 486.476 382.909C496.067 388.252 506.946 399.731 520.714 419.051C532.473 435.549 544.856 455.583 557.969 476.8C561.653 482.757 565.465 488.926 569.246 494.983C574.186 502.892 579.674 511.135 584.979 519.122C595.439 534.851 606.254 551.103 614.158 566.609C618.529 575.198 621.676 582.839 623.759 589.978C626.197 598.345 627.142 605.852 626.659 612.924C626.133 625.039 624.855 631.966 623.92 637.019C622.739 643.444 622.202 646.367 623.953 655.369C626.165 666.725 637.721 678.225 651.091 691.533C655.935 696.352 660.95 701.339 665.998 706.782C668.876 709.883 668.79 714.825 665.804 717.826C662.819 720.815 658.061 720.726 655.172 717.625C650.329 712.415 645.432 707.529 640.685 702.811C625.488 687.685 612.354 674.622 609.207 658.47C606.866 646.456 607.822 641.269 609.143 634.085C610.034 629.222 611.151 623.165 611.634 612.11C611.634 612.032 611.645 611.954 611.645 611.876C612.354 601.948 608.831 589.532 600.863 573.904C593.377 559.213 582.81 543.34 572.596 527.99C567.227 519.914 561.674 511.57 556.616 503.472C552.814 497.381 548.991 491.201 545.307 485.233C532.334 464.24 520.08 444.417 508.621 428.343C502.585 419.876 497.312 413.217 492.522 407.985C487.615 402.631 483.222 398.849 479.495 396.741C470.915 392.424 466.254 391.197 461.335 389.892C457.071 388.765 452.668 387.605 446.321 384.593C433.369 379.005 425.379 364.436 420.944 353.181C418.312 346.499 416.24 339.271 414.768 331.685C413.362 324.423 412.588 317.072 412.524 310.424C412.438 301.165 414.296 293.714 416.089 286.508C417.679 280.116 419.182 274.07 419.053 267.254C418.903 259.602 416.755 251.693 412.277 242.401C406.746 233.053 399.894 226.806 390.733 222.779C382.045 218.964 372.09 217.425 361.543 215.807C343.082 212.963 322.151 209.75 302.981 193.152C293.101 184.596 285.744 173.385 281.115 159.798C277.507 149.212 275.563 137.21 275.327 124.102C275.337 123.21 275.337 122.306 275.337 121.425Z" fill="#BCDEF7"/>
<path d="M-136.19 39.6034C-136.19 38.2537 -135.846 36.8816 -135.138 35.6323C-133.022 31.9177 -128.404 30.7018 -124.838 32.8993C-108.546 42.9276 -94.5421 52.9783 -81.9984 63.6312C-70.8078 73.1353 -61.0993 82.8736 -52.3251 93.3815C-36.0977 112.813 -26.1315 131.253 -16.4981 149.089C-12.4171 156.641 -8.56162 163.769 -4.29804 170.897C14.9364 201.919 45.0071 218.038 74.1004 233.611C89.6405 241.932 104.311 249.796 117.058 259.691C124.093 265.146 129.871 270.712 134.714 276.713C140.224 283.518 144.412 290.691 147.526 298.655C147.58 298.789 147.623 298.923 147.666 299.057C151.661 311.138 153.551 321.869 155.227 331.328C157.117 342.07 158.76 351.351 162.916 360.688C167.502 370.984 174.826 380.421 185.963 390.394C194.512 398.046 205.552 406.658 218.343 416.641C239.553 433.184 263.599 451.947 285.368 473.431C311.089 498.809 328.09 522.669 337.347 546.362C347.969 573.547 345.66 600.698 342.975 632.133C338.743 681.717 333.492 743.426 375.634 838.477C377.373 842.393 375.72 847.033 371.95 848.84C368.18 850.647 363.713 848.93 361.973 845.014C342.524 801.153 331.075 760.203 326.951 719.811C323.386 684.851 325.835 656.105 327.993 630.75C329.271 615.746 330.485 601.579 330.13 588.539C329.754 574.54 327.617 563.006 323.407 552.241C314.966 530.656 299.136 508.58 275.004 484.765C253.858 463.905 230.188 445.432 209.311 429.146C196.305 419.006 185.083 410.238 176.147 402.251C163.324 390.773 154.786 379.662 149.266 367.269C144.315 356.137 142.425 345.473 140.438 334.173C138.795 324.869 137.098 315.254 133.522 304.367C128.732 292.219 120.635 282.001 108.059 272.24C96.3097 263.127 82.1765 255.552 67.2057 247.532C52.2455 239.512 36.7699 231.223 22.2393 220.626C5.47494 208.389 -7.3588 194.881 -16.9814 179.331C-17.0029 179.297 -17.0244 179.264 -17.0351 179.241C-21.5028 171.801 -25.6267 164.16 -29.6218 156.775C-48.3515 122.117 -67.7148 86.2647 -132.517 46.3745C-134.869 44.8686 -136.19 42.2695 -136.19 39.6034Z" fill="#BCDEF7"/>
<path d="M231.241 253.466L231.241 215.573C231.241 214.525 231.714 213.543 232.519 212.907C233.325 212.271 234.367 212.07 235.333 212.349L365.528 250.243C367.247 250.745 368.245 252.585 367.762 254.37C367.279 256.155 365.507 257.192 363.788 256.69L237.685 219.99L237.685 250.142C251.432 250.31 264.33 251.526 276.057 253.779C288.751 256.211 300.393 259.903 310.66 264.755C330.818 274.293 346.251 288.504 356.55 307.021L503.434 307.021C505.217 307.021 506.656 308.516 506.656 310.368C506.656 312.22 505.217 313.714 503.434 313.714L354.681 313.714C353.511 313.714 352.426 313.056 351.857 311.985C347.056 302.961 340.924 294.918 333.643 288.08C326.35 281.242 317.727 275.453 307.997 270.846C288.311 261.532 263.567 256.813 234.463 256.813C232.68 256.813 231.241 255.318 231.241 253.466Z" fill="white"/>
<path opacity="0.1" d="M350.922 262.078L252.86 233.7C252.226 233.521 251.593 234.012 251.593 234.693L251.593 239.657C251.593 240.125 251.893 240.527 252.323 240.649L350.385 268.537C351.019 268.715 351.642 268.224 351.642 267.544L351.642 263.082C351.653 262.602 351.352 262.201 350.922 262.078Z" fill="#09C5FF"/>
<path opacity="0.1" d="M377.041 227.576L376.128 234.425C376.031 235.161 375.559 235.786 374.893 236.054L364.046 240.56C363.659 240.728 363.219 240.75 362.811 240.638L317.469 228.58C316.083 228.212 315.514 226.483 316.395 225.311L322.001 217.826C322.441 217.235 323.161 216.945 323.869 217.057L375.365 225.233C376.45 225.423 377.191 226.46 377.041 227.576Z" fill="#09C5FF"/>
<path d="M231.241 215.573L231.241 136.674C231.241 135.581 231.756 134.566 232.616 133.941C233.475 133.316 234.57 133.16 235.558 133.528L333.309 170.105C334.985 170.73 335.855 172.649 335.253 174.389C334.652 176.129 332.805 177.033 331.129 176.408L237.695 141.448L237.695 215.584C237.695 217.436 236.256 218.931 234.474 218.931C232.691 218.931 231.241 217.425 231.241 215.573Z" fill="white"/>
<path opacity="0.1" d="M269.259 172.214L276.154 174.311C276.519 174.422 276.766 174.768 276.766 175.159L276.766 185.89C276.766 186.447 276.272 186.871 275.735 186.749C275.209 186.626 274.704 187.05 274.704 187.608L274.704 194.479C274.704 194.881 274.962 195.226 275.327 195.327L276.132 195.55C276.498 195.65 276.755 196.007 276.755 196.398L276.755 206.404C276.755 206.984 276.229 207.408 275.681 207.251L268.787 205.311C268.421 205.21 268.164 204.853 268.164 204.463L268.164 173.05C268.174 172.47 268.711 172.046 269.259 172.214Z" fill="#09C5FF"/>
<path opacity="0.1" d="M264.716 163.346L264.716 209.761C264.716 210.464 264.072 210.977 263.417 210.777L252.473 207.519C252.033 207.385 251.732 206.973 251.732 206.504L251.732 159.665C251.732 158.951 252.409 158.437 253.064 158.661L264.008 162.342C264.426 162.476 264.716 162.888 264.716 163.346Z" fill="#09C5FF"/>
<path opacity="0.1" d="M307.824 135.771L307.824 103.377C307.824 102.875 307.438 102.473 306.954 102.473L300.263 102.473C299.78 102.473 299.394 102.875 299.394 103.377L299.394 135.771C299.394 136.273 299.78 136.674 300.263 136.674L306.954 136.674C307.427 136.674 307.824 136.273 307.824 135.771Z" fill="#09C5FF"/>
<path d="M314.472 144.137L342.9 144.137C343.383 144.137 343.77 143.735 343.77 143.233L343.77 136.284C343.77 135.782 343.383 135.38 342.9 135.38L314.472 135.38C313.989 135.38 313.603 135.782 313.603 136.284L313.603 143.233C313.603 143.735 313.989 144.137 314.472 144.137Z" fill="#D2D9D8"/>
<path d="M81.4035 301.243C81.4035 300.574 81.5968 299.916 81.9619 299.369L149.932 195.349C150.92 193.832 152.907 193.43 154.378 194.434L236.246 250.666C237.728 251.682 238.136 253.768 237.159 255.307C236.181 256.846 234.173 257.27 232.691 256.255L153.476 201.841L87.9868 302.057L101.239 405.486C101.476 407.316 100.23 409 98.4685 409.246C96.7073 409.491 95.0856 408.197 94.8493 406.368L81.4357 301.678C81.4142 301.533 81.4035 301.388 81.4035 301.243Z" fill="white"/>
<path d="M2.4358 246.673C2.4358 249.79 4.86874 252.317 7.8699 252.317C10.8711 252.317 13.304 249.79 13.304 246.673C13.304 243.556 10.8711 241.029 7.86991 241.029C4.86874 241.029 2.4358 243.556 2.4358 246.673Z" fill="#09C5FF" fill-opacity="0.18"/>
<path d="M36.1152 197.234C36.1152 200.352 38.5481 202.879 41.5493 202.879C44.5505 202.879 46.9835 200.352 46.9835 197.234C46.9835 194.117 44.5506 191.59 41.5493 191.59C38.5481 191.59 36.1152 194.117 36.1152 197.234Z" fill="#09C5FF" fill-opacity="0.18"/>
<path d="M66.7224 86.6104C66.7224 89.7278 69.1553 92.2549 72.1565 92.2549C75.1576 92.2549 77.5906 89.7278 77.5906 86.6104C77.5906 83.4931 75.1576 80.9659 72.1565 80.9659C69.1553 80.9659 66.7224 83.4931 66.7224 86.6104Z" fill="#09C5FF"/>
<path d="M135.38 77.5638C135.38 80.6811 137.813 83.2082 140.814 83.2082C143.816 83.2082 146.249 80.6811 146.249 77.5638C146.249 74.4465 143.816 71.9194 140.814 71.9194C137.813 71.9194 135.38 74.4465 135.38 77.5638Z" fill="#09C5FF" fill-opacity="0.18"/>
<path d="M326.78 36.1009C326.78 39.2182 329.213 41.7453 332.214 41.7453C335.215 41.7453 337.648 39.2182 337.648 36.1009C337.648 32.9836 335.215 30.4565 332.214 30.4565C329.213 30.4565 326.78 32.9836 326.78 36.1009Z" fill="#09C5FF" fill-opacity="0.18"/>
<path d="M323.429 62.0026C323.429 65.1199 325.862 67.647 328.863 67.647C331.864 67.647 334.297 65.1199 334.297 62.0026C334.297 58.8853 331.864 56.3582 328.863 56.3582C325.862 56.3582 323.429 58.8853 323.429 62.0026Z" fill="#09C5FF" fill-opacity="0.18"/>
<path d="M257.306 60.441C257.306 63.5584 259.739 66.0855 262.74 66.0855C265.741 66.0855 268.174 63.5584 268.174 60.441C268.174 57.3237 265.741 54.7966 262.74 54.7966C259.739 54.7966 257.306 57.3237 257.306 60.441Z" fill="#09C5FF" fill-opacity="0.18"/>
<path d="M117.929 66.0743C117.929 69.1916 120.362 71.7187 123.363 71.7187C126.364 71.7187 128.797 69.1916 128.797 66.0743C128.797 62.9569 126.364 60.4299 123.363 60.4299C120.362 60.4299 117.929 62.9569 117.929 66.0743Z" fill="#09C5FF" fill-opacity="0.18"/>
<path d="M6.48441 301.578C6.48441 304.695 8.91738 307.222 11.9186 307.222C14.9198 307.222 17.3528 304.695 17.3528 301.578C17.3528 298.46 14.9198 295.933 11.9186 295.933C8.91738 295.933 6.48441 298.46 6.48441 301.578Z" fill="#09C5FF" fill-opacity="0.18"/>
<path d="M104.182 298.22C104.182 301.337 106.615 303.865 109.616 303.865C112.617 303.865 115.05 301.337 115.05 298.22C115.05 295.103 112.617 292.576 109.616 292.576C106.615 292.576 104.182 295.103 104.182 298.22Z" fill="#09C5FF"/>
<path d="M108.059 326.732C108.059 329.85 110.492 332.377 113.493 332.377C116.494 332.377 118.927 329.85 118.927 326.732C118.927 323.615 116.494 321.088 113.493 321.088C110.492 321.088 108.059 323.615 108.059 326.732Z" fill="#09C5FF"/>
<path d="M-55.8262 260.929C-55.8262 260.416 -55.7081 259.892 -55.4826 259.423L31.3786 80.587C31.8404 79.65 32.6888 78.9807 33.6876 78.8022C34.6864 78.6237 35.7066 78.9361 36.4476 79.65L152.015 192.103L205.692 108.798C206.218 107.972 207.077 107.437 208.022 107.337C208.967 107.225 209.912 107.56 210.6 108.251L236.686 134.276C237.964 135.559 238.007 137.678 236.782 139.006C235.547 140.333 233.507 140.378 232.229 139.106L208.924 115.848L155.27 199.108C154.743 199.923 153.895 200.458 152.961 200.57C152.016 200.681 151.081 200.358 150.394 199.689L35.1911 87.5812L-49.0281 260.974L73.0049 530.054C73.7674 531.727 73.0693 533.724 71.4584 534.505C69.8475 535.297 67.9251 534.572 67.1734 532.898L-55.5256 262.346C-55.7296 261.9 -55.8262 261.409 -55.8262 260.929Z" fill="white"/>
<path d="M-6.76805 217.135L-0.02358 228C0.373783 228.636 0.406002 229.439 0.0838154 230.119L-14.4468 259.758C-14.8012 260.472 -15.4993 260.918 -16.2725 260.918L-28.7949 260.918C-30.3306 260.918 -31.3187 259.223 -30.6098 257.817L-10.2906 217.313C-9.58179 215.863 -7.62721 215.774 -6.76805 217.135Z" fill="#D2D9D8"/>
<path d="M12.1978 336.984L0.599129 336.984C-1.28028 336.984 -2.52607 338.992 -1.7743 340.765L11.5426 371.888C11.8863 372.68 12.5736 373.26 13.3898 373.427L25.7295 376.059C27.7807 376.494 29.4668 374.353 28.6291 372.356L14.5712 338.59C14.1631 337.631 13.2287 336.984 12.1978 336.984Z" fill="#D2D9D8"/>
<path d="M5.36778 316.492L-9.96818 279.647C-10.3763 278.666 -11.3106 278.019 -12.3416 278.019L-24.6061 278.019C-26.4855 278.019 -27.7313 280.026 -26.9795 281.8L-11.2247 318.645C-10.8059 319.615 -9.88228 320.24 -8.85129 320.24L2.99434 320.24C4.85228 320.251 6.10881 318.277 5.36778 316.492Z" fill="#D2D9D8"/>
<path opacity="0.1" d="M28.2642 242.211L79.1694 269.82C80.4689 270.522 80.877 272.251 80.0393 273.512L60.4719 302.771C60.0209 303.452 59.2691 303.865 58.4744 303.865L26.1485 303.865C25.0853 303.865 24.1402 303.139 23.8181 302.08L13.5833 267.946C13.39 267.31 13.4544 266.629 13.7444 266.038L24.9564 243.293C25.59 242.055 27.0614 241.564 28.2642 242.211Z" fill="#09C5FF"/>
<path opacity="0.1" d="M84.2171 380.321L75.5718 319.415C75.4107 318.299 74.4978 317.474 73.4131 317.474L33.6662 317.474C32.0446 317.474 30.9814 319.259 31.7117 320.764L60.0854 379.428C60.4183 380.12 61.0627 380.588 61.8037 380.667L81.8221 382.909C83.2398 383.076 84.4211 381.793 84.2171 380.321Z" fill="#09C5FF"/>
<path d="M-156.627 174.188C-156.627 173.53 -156.434 172.861 -156.047 172.269L-1.50589 -57.255L68.8379 -284.013C69.3856 -285.776 71.2006 -286.735 72.8975 -286.177C74.5943 -285.608 75.5179 -283.723 74.9809 -281.961L4.49748 -54.7229C4.40082 -54.4105 4.25047 -54.1093 4.0679 -53.8305L-150.753 176.107C-151.773 177.624 -153.781 177.992 -155.242 176.932C-156.144 176.285 -156.627 175.248 -156.627 174.188Z" fill="white"/>
<path d="M113.88 -34.0862C113.88 -45.5758 116.264 -55.4814 120.978 -63.5241C124.791 -70.0386 130.096 -75.3149 136.744 -79.208C147.924 -85.7671 159.007 -86.1129 159.469 -86.1241C161.252 -86.1687 162.723 -84.7074 162.766 -82.8557C162.809 -81.0039 161.402 -79.4757 159.619 -79.4311C159.522 -79.4311 149.492 -79.0741 139.697 -73.2513C134.07 -69.9159 129.602 -65.4205 126.402 -59.9099C122.364 -52.9492 120.313 -44.2484 120.313 -34.075C120.313 -29.323 121.225 -25.0841 123.266 -20.3321C125.672 -14.7212 129.774 -8.2736 135.799 -0.632457C148.869 15.9438 171.916 39.3692 210.524 75.3328C211.201 75.9687 211.598 76.8722 211.598 77.8204L211.598 110.661C211.598 112.512 210.159 114.007 208.377 114.007C206.594 114.007 205.155 112.512 205.155 110.661L205.155 79.3152C166.933 43.675 143.982 20.2943 130.816 3.60643C124.415 -4.50323 120.023 -11.4416 117.381 -17.6103C114.996 -23.1989 113.88 -28.4306 113.88 -34.0862Z" fill="white"/>
<path d="M-54.387 22.3468C-54.387 21.6998 -54.2044 21.0529 -53.8393 20.484C-52.8405 18.9557 -50.8429 18.543 -49.3716 19.5804L34.5576 78.2778L152.993 22.2018C154.614 21.4321 156.526 22.1795 157.256 23.8639C157.997 25.5483 157.278 27.5339 155.656 28.2924L35.5778 85.1492C34.5576 85.6289 33.3762 85.5285 32.4419 84.8815L-52.9801 25.1467C-53.8822 24.4774 -54.387 23.4177 -54.387 22.3468Z" fill="white"/>
<path d="M113.88 162.698C113.88 162.174 113.998 161.639 114.255 161.137L173.205 45.5268C173.334 45.2702 173.505 45.0248 173.688 44.8129C182.333 35.1527 189.561 25.6598 195.178 16.5797C201.052 7.07564 205.37 -2.29453 208.001 -11.2854C210.729 -20.5998 211.749 -29.8361 211.04 -38.7155C210.288 -47.9629 207.636 -57.1881 203.136 -66.1232C202.309 -67.763 202.921 -69.782 204.5 -70.641C206.078 -71.4999 208.022 -70.8641 208.849 -69.2243C213.746 -59.4972 216.646 -49.4242 217.473 -39.2732C218.257 -29.5349 217.151 -19.462 214.176 -9.33331C211.373 0.248802 206.798 10.1767 200.612 20.1939C194.856 29.4971 187.488 39.2131 178.714 49.0406L119.958 164.271C119.12 165.9 117.177 166.525 115.598 165.666C114.502 165.052 113.88 163.892 113.88 162.698Z" fill="white"/>
<path d="M72.4146 122.34C72.4146 121.849 72.522 121.358 72.7368 120.879L108.542 44.0767C109.316 42.4146 111.249 41.723 112.849 42.5262C114.449 43.3293 115.115 45.3372 114.342 46.9993L78.5361 123.801C77.7629 125.463 75.8297 126.155 74.2295 125.352C73.0804 124.783 72.4146 123.589 72.4146 122.34Z" fill="white"/>
<path opacity="0.1" d="M13.8089 169.001L52.2026 182.878C53.6632 183.402 55.2742 182.811 56.0904 181.45L62.6952 170.362C63.5865 168.856 65.4445 168.309 66.9695 169.101L84.9152 178.427C86.5691 179.286 88.5773 178.561 89.3613 176.832L92.4543 170.05C93.0879 168.666 92.755 167.004 91.6381 166L39.2723 118.782C37.6614 117.331 35.1698 117.822 34.1925 119.785L11.9724 164.193C11.0488 166.034 11.9188 168.309 13.8089 169.001Z" fill="#09C5FF"/>
<path opacity="0.1" d="M59.1084 209.717L74.4122 218.328C75.7976 219.109 77.5266 218.54 78.2247 217.068L86.3867 199.9C87.0848 198.439 86.4726 196.676 85.055 195.996L69.7513 188.712C68.4196 188.076 66.8408 188.634 66.1428 189.972L57.9808 205.812C57.2612 207.218 57.766 208.958 59.1084 209.717Z" fill="#09C5FF"/>
<path d="M-44.2704 46.7538L10.791 86.499C11.9616 87.3468 12.359 88.9642 11.7039 90.2805L-6.18816 126.69C-7.25137 128.854 -10.2155 128.843 -11.2787 126.69C-20.8046 107.292 -36.495 87.5364 -57.2867 67.4909C-58.2855 66.5316 -58.4895 64.981 -57.7915 63.7652L-48.3407 47.6351C-47.4923 46.1849 -45.6236 45.7722 -44.2704 46.7538Z" fill="#09C5FF" fill-opacity="0.18"/>
<path d="M69.9656 -1.90408L97.8991 29.3633C99.1449 30.7576 98.6938 33.0109 97.0185 33.7695L68.5158 46.698C67.4526 47.1777 66.2175 46.8877 65.455 45.9841L32.8392 7.25412C31.4645 5.61434 32.3559 3.04872 34.4286 2.70292L67.6244 -2.76301C68.4836 -2.89687 69.3642 -2.58454 69.9656 -1.90408Z" fill="#D2D9D8"/>
<path d="M52.6321 51.5392L33.301 60.2512C32.6029 60.5636 31.7868 60.4855 31.1639 60.0281L-0.614332 36.9262C-1.46275 36.3127 -1.78496 35.1637 -1.3876 34.171L3.82107 21.2424C4.05733 20.6512 4.04662 19.9819 3.78887 19.4018L0.738807 12.5192C0.137394 11.1695 0.932159 9.58543 2.33903 9.31771L17.3528 6.41742C18.1261 6.27241 18.9101 6.55131 19.4149 7.16483L53.4161 47.9362C54.3934 49.1075 53.996 50.9145 52.6321 51.5392Z" fill="#D2D9D8"/>
<path d="M-21.9645 -190.077C-21.9645 -191.215 -21.5456 -192.353 -20.7079 -193.234C-19.0326 -194.974 -16.3155 -194.985 -14.6294 -193.245L214.552 44.3443C216.227 46.0845 216.238 48.9067 214.563 50.658C212.887 52.3982 210.17 52.4094 208.484 50.6692L-20.6972 -186.92C-21.5456 -187.791 -21.9645 -188.939 -21.9645 -190.077Z" fill="#F5CA62"/>
<path opacity="0.1" d="M176.319 192.326L210.235 141.593C210.922 140.556 212.329 140.378 213.231 141.214L216.957 144.605C217.398 145.007 217.645 145.576 217.645 146.189L217.709 218.429C217.709 220.091 215.948 221.095 214.595 220.203L176.899 195.305C175.922 194.658 175.653 193.308 176.319 192.326Z" fill="#09C5FF"/>
<path opacity="0.1" d="M92.0782 116.618L114.116 136.752C115.061 137.622 116.543 137.355 117.155 136.206L135.144 102.35C135.702 101.302 135.283 99.9855 134.231 99.4946L107.189 86.7222C106.222 86.2648 105.094 86.6776 104.611 87.6592L91.6271 114.141C91.219 114.978 91.4016 115.993 92.0782 116.618Z" fill="#09C5FF"/>
<path d="M205.166 77.8093C205.166 77.0061 205.434 76.2141 205.993 75.5671C253.461 20.8074 286.625 15.5757 318.704 10.5225C330.721 8.62619 342.073 6.8414 354.273 2.56905C372.53 -3.82275 389.423 -14.4423 404.48 -28.9883C420.482 -44.4491 434.615 -64.5615 446.493 -88.7566C447.299 -90.4076 449.242 -91.0545 450.832 -90.2179C452.421 -89.3813 453.044 -87.3623 452.239 -85.7113C440.017 -60.8134 425.433 -40.0764 408.873 -24.0801C393.139 -8.88709 375.473 2.22326 356.335 8.91624C343.609 13.3671 331.441 15.2857 319.681 17.1374C311.906 18.3645 303.862 19.625 295.764 21.6217C286.743 23.8416 278.549 26.753 270.73 30.5234C261.323 35.0635 252.215 40.9198 242.915 48.4271C232.39 56.9049 221.887 67.2455 210.804 80.0403C209.612 81.4123 207.571 81.5239 206.25 80.2857C205.52 79.6387 205.166 78.724 205.166 77.8093Z" fill="white"/>
</g>
</svg>
