<svg width="180" height="180" viewBox="0 0 180 180" fill="none" xmlns="http://www.w3.org/2000/svg">
<circle cx="90" cy="90" r="90" fill="url(#paint0_linear_0_1284)"/>
<path opacity="0.07" d="M89.9982 140C86.153 140 82.3129 138.54 79.3777 135.625L75.7276 131.974C74.3125 130.564 72.4174 129.784 70.4074 129.779H65.2722C56.9719 129.779 50.2167 123.024 50.2167 114.723V109.583C50.2117 107.578 49.4316 105.683 48.0166 104.258L44.4265 100.672C38.5462 94.8269 38.5212 85.2713 44.3715 79.3859L48.0216 75.7306C49.4316 74.3155 50.2117 72.4204 50.2167 70.4103V65.2799C50.2167 56.9743 56.9719 50.2189 65.2722 50.2189H70.4124C72.4174 50.2189 74.3075 49.4388 75.7326 48.0137L79.3277 44.4285C85.173 38.5481 94.7233 38.5181 100.614 44.3735L104.264 48.0237C105.684 49.4388 107.574 50.2189 109.579 50.2189H114.719C123.019 50.2189 129.775 56.9743 129.775 65.2799V70.4153C129.78 72.4204 130.56 74.3155 131.975 75.7406L135.565 79.3309C138.41 82.1611 139.985 85.9313 140 89.9566C140.01 93.9569 138.47 97.7221 135.665 100.567C135.615 100.617 135.57 100.672 135.52 100.717L131.97 104.268C130.56 105.683 129.78 107.578 129.775 109.588V114.723C129.775 123.024 123.019 129.779 114.719 129.779H109.579C107.574 129.784 105.679 130.564 104.259 131.979L100.664 135.57C97.7335 138.52 93.8633 140 89.9982 140Z" fill="url(#paint1_linear_0_1284)"/>
<path d="M89.9985 132.102C86.7606 132.102 83.5269 130.873 81.0552 128.418L77.9815 125.344C76.79 124.157 75.1942 123.5 73.5015 123.496H69.1773C62.1879 123.496 56.4994 117.808 56.4994 110.818V106.49C56.4952 104.801 55.8384 103.206 54.6468 102.006L51.6237 98.9866C46.6721 94.0645 46.651 86.0182 51.5773 81.0624L54.651 77.9845C55.8384 76.7929 56.4952 75.1971 56.4994 73.5045V69.1845C56.4994 62.1908 62.1879 56.5024 69.1773 56.5024H73.5058C75.1942 56.5024 76.7858 55.8455 77.9858 54.6455L81.0131 51.6266C85.9353 46.675 93.9774 46.6497 98.9374 51.5803L102.011 54.6539C103.207 55.8455 104.798 56.5024 106.487 56.5024H110.815C117.805 56.5024 123.493 62.1908 123.493 69.1845V73.5087C123.497 75.1971 124.154 76.7929 125.346 77.9929L128.369 81.0161C130.765 83.3992 132.091 86.5739 132.104 89.9634C132.112 93.3318 130.815 96.5024 128.453 98.8982C128.411 98.9403 128.373 98.9866 128.331 99.0245L125.342 102.014C124.154 103.206 123.497 104.801 123.493 106.494V110.818C123.493 117.808 117.805 123.496 110.815 123.496H106.487C104.798 123.5 103.203 124.157 102.007 125.349L98.9795 128.372C96.5122 130.856 93.2532 132.102 89.9985 132.102Z" fill="url(#paint2_linear_0_1284)"/>
<path d="M85.7774 101.406C84.9799 101.406 84.1824 101.108 83.5736 100.508L75.1252 92.1769C73.9076 90.9762 73.9076 89.0313 75.1252 87.8342C76.3428 86.6335 78.3116 86.63 79.5292 87.8307L85.7774 93.9919L100.474 79.4999C101.691 78.2992 103.66 78.2992 104.878 79.4999C106.095 80.7005 106.095 82.6454 104.878 83.8461L87.9811 100.508C87.3723 101.108 86.5749 101.406 85.7774 101.406Z" fill="white"/>
<defs>
<linearGradient id="paint0_linear_0_1284" x1="297" y1="249" x2="235.52" y2="-99.0035" gradientUnits="userSpaceOnUse">
<stop stop-color="#09C5FF" stop-opacity="0.43"/>
<stop offset="1" stop-color="#09C5FF" stop-opacity="0"/>
</linearGradient>
<linearGradient id="paint1_linear_0_1284" x1="90" y1="40" x2="90" y2="140" gradientUnits="userSpaceOnUse">
<stop stop-color="#69D9C9"/>
<stop offset="1" stop-color="#65B2A8"/>
</linearGradient>
<linearGradient id="paint2_linear_0_1284" x1="90" y1="47.8976" x2="90" y2="132.102" gradientUnits="userSpaceOnUse">
<stop stop-color="#32DEC7"/>
<stop offset="1" stop-color="#127D6F"/>
</linearGradient>
</defs>
</svg>
